<?xml version="1.0" standalone="no"?>
<!DOCTYPE svg PUBLIC "-//W3C//DTD SVG 20010904//EN"
 "http://www.w3.org/TR/2001/REC-SVG-20010904/DTD/svg10.dtd">
<svg version="1.0" xmlns="http://www.w3.org/2000/svg"
 width="256.000000pt" height="256.000000pt" viewBox="0 0 256.000000 256.000000"
 preserveAspectRatio="xMidYMid meet">

<g transform="translate(0.000000,256.000000) scale(0.100000,-0.100000)"
fill="#000000" stroke="none">
<path d="M1140 2554 c-208 -27 -407 -101 -580 -217 -96 -64 -273 -241 -337
-337 -95 -142 -163 -302 -199 -470 -26 -119 -26 -381 0 -500 56 -259 167 -462
355 -651 185 -186 394 -300 651 -355 119 -26 381 -26 500 0 257 55 466 169
651 355 186 185 300 394 355 651 26 119 26 381 0 500 -56 259 -167 463 -355
651 -185 185 -379 293 -631 350 -83 19 -331 33 -410 23z m310 -169 c235 -35
449 -144 620 -315 400 -401 439 -1027 92 -1476 -317 -411 -884 -549 -1349
-329 -459 217 -714 690 -638 1185 54 357 279 665 607 831 205 104 436 140 668
104z"/>
<path d="M890 1863 c-8 -3 -81 -71 -162 -151 -137 -136 -148 -149 -148 -184 0
-28 6 -42 26 -57 45 -36 69 -28 150 51 l74 71 0 -421 0 -421 23 -27 c33 -37
81 -37 114 0 l23 27 0 421 0 421 74 -71 c80 -78 105 -87 149 -52 32 26 41 63
23 98 -16 31 -279 292 -294 292 -6 0 -16 2 -24 4 -7 3 -20 2 -28 -1z"/>
<path d="M1615 1858 c-45 -26 -44 -23 -45 -467 l0 -424 -74 71 c-78 76 -102
85 -144 56 -32 -22 -44 -58 -31 -91 14 -38 256 -282 296 -299 18 -8 40 -11 50
-8 10 4 84 72 166 153 136 135 147 148 147 183 0 28 -6 42 -26 57 -45 36 -69
28 -150 -51 l-74 -71 0 422 0 423 -29 29 c-31 31 -54 35 -86 17z"/>
</g>
</svg>
