<?xml version="1.0" encoding="utf-8"?>
<svg xmlns="http://www.w3.org/2000/svg" xmlns:xlink="http://www.w3.org/1999/xlink" xml:space="preserve" width="990" height="990" viewBox="0 0 990 990"><g fill="#ffffff">
<g transform="translate(220,44) scale(3.7766666666667)"><circle cx="3" cy="3" r="3"/></g>
<g transform="translate(308,44) scale(3.7766666666667)"><circle cx="3" cy="3" r="3"/></g>
<g transform="translate(352,44) scale(3.7766666666667)"><circle cx="3" cy="3" r="3"/></g>
<g transform="translate(396,44) scale(3.7766666666667)"><circle cx="3" cy="3" r="3"/></g>
<g transform="translate(418,44) scale(3.7766666666667)"><circle cx="3" cy="3" r="3"/></g>
<g transform="translate(528,44) scale(3.7766666666667)"><circle cx="3" cy="3" r="3"/></g>
<g transform="translate(550,44) scale(3.7766666666667)"><circle cx="3" cy="3" r="3"/></g>
<g transform="translate(572,44) scale(3.7766666666667)"><circle cx="3" cy="3" r="3"/></g>
<g transform="translate(638,44) scale(3.7766666666667)"><circle cx="3" cy="3" r="3"/></g>
<g transform="translate(660,44) scale(3.7766666666667)"><circle cx="3" cy="3" r="3"/></g>
<g transform="translate(682,44) scale(3.7766666666667)"><circle cx="3" cy="3" r="3"/></g>
<g transform="translate(748,44) scale(3.7766666666667)"><circle cx="3" cy="3" r="3"/></g>
<g transform="translate(220,66) scale(3.7766666666667)"><circle cx="3" cy="3" r="3"/></g>
<g transform="translate(308,66) scale(3.7766666666667)"><circle cx="3" cy="3" r="3"/></g>
<g transform="translate(330,66) scale(3.7766666666667)"><circle cx="3" cy="3" r="3"/></g>
<g transform="translate(374,66) scale(3.7766666666667)"><circle cx="3" cy="3" r="3"/></g>
<g transform="translate(418,66) scale(3.7766666666667)"><circle cx="3" cy="3" r="3"/></g>
<g transform="translate(440,66) scale(3.7766666666667)"><circle cx="3" cy="3" r="3"/></g>
<g transform="translate(462,66) scale(3.7766666666667)"><circle cx="3" cy="3" r="3"/></g>
<g transform="translate(484,66) scale(3.7766666666667)"><circle cx="3" cy="3" r="3"/></g>
<g transform="translate(550,66) scale(3.7766666666667)"><circle cx="3" cy="3" r="3"/></g>
<g transform="translate(660,66) scale(3.7766666666667)"><circle cx="3" cy="3" r="3"/></g>
<g transform="translate(682,66) scale(3.7766666666667)"><circle cx="3" cy="3" r="3"/></g>
<g transform="translate(220,88) scale(3.7766666666667)"><circle cx="3" cy="3" r="3"/></g>
<g transform="translate(242,88) scale(3.7766666666667)"><circle cx="3" cy="3" r="3"/></g>
<g transform="translate(264,88) scale(3.7766666666667)"><circle cx="3" cy="3" r="3"/></g>
<g transform="translate(352,88) scale(3.7766666666667)"><circle cx="3" cy="3" r="3"/></g>
<g transform="translate(374,88) scale(3.7766666666667)"><circle cx="3" cy="3" r="3"/></g>
<g transform="translate(462,88) scale(3.7766666666667)"><circle cx="3" cy="3" r="3"/></g>
<g transform="translate(484,88) scale(3.7766666666667)"><circle cx="3" cy="3" r="3"/></g>
<g transform="translate(528,88) scale(3.7766666666667)"><circle cx="3" cy="3" r="3"/></g>
<g transform="translate(550,88) scale(3.7766666666667)"><circle cx="3" cy="3" r="3"/></g>
<g transform="translate(572,88) scale(3.7766666666667)"><circle cx="3" cy="3" r="3"/></g>
<g transform="translate(616,88) scale(3.7766666666667)"><circle cx="3" cy="3" r="3"/></g>
<g transform="translate(638,88) scale(3.7766666666667)"><circle cx="3" cy="3" r="3"/></g>
<g transform="translate(660,88) scale(3.7766666666667)"><circle cx="3" cy="3" r="3"/></g>
<g transform="translate(682,88) scale(3.7766666666667)"><circle cx="3" cy="3" r="3"/></g>
<g transform="translate(704,88) scale(3.7766666666667)"><circle cx="3" cy="3" r="3"/></g>
<g transform="translate(726,88) scale(3.7766666666667)"><circle cx="3" cy="3" r="3"/></g>
<g transform="translate(748,88) scale(3.7766666666667)"><circle cx="3" cy="3" r="3"/></g>
<g transform="translate(242,110) scale(3.7766666666667)"><circle cx="3" cy="3" r="3"/></g>
<g transform="translate(264,110) scale(3.7766666666667)"><circle cx="3" cy="3" r="3"/></g>
<g transform="translate(308,110) scale(3.7766666666667)"><circle cx="3" cy="3" r="3"/></g>
<g transform="translate(374,110) scale(3.7766666666667)"><circle cx="3" cy="3" r="3"/></g>
<g transform="translate(440,110) scale(3.7766666666667)"><circle cx="3" cy="3" r="3"/></g>
<g transform="translate(462,110) scale(3.7766666666667)"><circle cx="3" cy="3" r="3"/></g>
<g transform="translate(506,110) scale(3.7766666666667)"><circle cx="3" cy="3" r="3"/></g>
<g transform="translate(748,110) scale(3.7766666666667)"><circle cx="3" cy="3" r="3"/></g>
<g transform="translate(242,132) scale(3.7766666666667)"><circle cx="3" cy="3" r="3"/></g>
<g transform="translate(264,132) scale(3.7766666666667)"><circle cx="3" cy="3" r="3"/></g>
<g transform="translate(286,132) scale(3.7766666666667)"><circle cx="3" cy="3" r="3"/></g>
<g transform="translate(352,132) scale(3.7766666666667)"><circle cx="3" cy="3" r="3"/></g>
<g transform="translate(418,132) scale(3.7766666666667)"><circle cx="3" cy="3" r="3"/></g>
<g transform="translate(484,132) scale(3.7766666666667)"><circle cx="3" cy="3" r="3"/></g>
<g transform="translate(506,132) scale(3.7766666666667)"><circle cx="3" cy="3" r="3"/></g>
<g transform="translate(594,132) scale(3.7766666666667)"><circle cx="3" cy="3" r="3"/></g>
<g transform="translate(616,132) scale(3.7766666666667)"><circle cx="3" cy="3" r="3"/></g>
<g transform="translate(638,132) scale(3.7766666666667)"><circle cx="3" cy="3" r="3"/></g>
<g transform="translate(660,132) scale(3.7766666666667)"><circle cx="3" cy="3" r="3"/></g>
<g transform="translate(704,132) scale(3.7766666666667)"><circle cx="3" cy="3" r="3"/></g>
<g transform="translate(220,154) scale(3.7766666666667)"><circle cx="3" cy="3" r="3"/></g>
<g transform="translate(286,154) scale(3.7766666666667)"><circle cx="3" cy="3" r="3"/></g>
<g transform="translate(308,154) scale(3.7766666666667)"><circle cx="3" cy="3" r="3"/></g>
<g transform="translate(440,154) scale(3.7766666666667)"><circle cx="3" cy="3" r="3"/></g>
<g transform="translate(462,154) scale(3.7766666666667)"><circle cx="3" cy="3" r="3"/></g>
<g transform="translate(550,154) scale(3.7766666666667)"><circle cx="3" cy="3" r="3"/></g>
<g transform="translate(572,154) scale(3.7766666666667)"><circle cx="3" cy="3" r="3"/></g>
<g transform="translate(660,154) scale(3.7766666666667)"><circle cx="3" cy="3" r="3"/></g>
<g transform="translate(682,154) scale(3.7766666666667)"><circle cx="3" cy="3" r="3"/></g>
<g transform="translate(704,154) scale(3.7766666666667)"><circle cx="3" cy="3" r="3"/></g>
<g transform="translate(220,176) scale(3.7766666666667)"><circle cx="3" cy="3" r="3"/></g>
<g transform="translate(264,176) scale(3.7766666666667)"><circle cx="3" cy="3" r="3"/></g>
<g transform="translate(308,176) scale(3.7766666666667)"><circle cx="3" cy="3" r="3"/></g>
<g transform="translate(352,176) scale(3.7766666666667)"><circle cx="3" cy="3" r="3"/></g>
<g transform="translate(396,176) scale(3.7766666666667)"><circle cx="3" cy="3" r="3"/></g>
<g transform="translate(440,176) scale(3.7766666666667)"><circle cx="3" cy="3" r="3"/></g>
<g transform="translate(484,176) scale(3.7766666666667)"><circle cx="3" cy="3" r="3"/></g>
<g transform="translate(528,176) scale(3.7766666666667)"><circle cx="3" cy="3" r="3"/></g>
<g transform="translate(572,176) scale(3.7766666666667)"><circle cx="3" cy="3" r="3"/></g>
<g transform="translate(616,176) scale(3.7766666666667)"><circle cx="3" cy="3" r="3"/></g>
<g transform="translate(660,176) scale(3.7766666666667)"><circle cx="3" cy="3" r="3"/></g>
<g transform="translate(704,176) scale(3.7766666666667)"><circle cx="3" cy="3" r="3"/></g>
<g transform="translate(748,176) scale(3.7766666666667)"><circle cx="3" cy="3" r="3"/></g>
<g transform="translate(220,198) scale(3.7766666666667)"><circle cx="3" cy="3" r="3"/></g>
<g transform="translate(242,198) scale(3.7766666666667)"><circle cx="3" cy="3" r="3"/></g>
<g transform="translate(264,198) scale(3.7766666666667)"><circle cx="3" cy="3" r="3"/></g>
<g transform="translate(308,198) scale(3.7766666666667)"><circle cx="3" cy="3" r="3"/></g>
<g transform="translate(374,198) scale(3.7766666666667)"><circle cx="3" cy="3" r="3"/></g>
<g transform="translate(396,198) scale(3.7766666666667)"><circle cx="3" cy="3" r="3"/></g>
<g transform="translate(418,198) scale(3.7766666666667)"><circle cx="3" cy="3" r="3"/></g>
<g transform="translate(440,198) scale(3.7766666666667)"><circle cx="3" cy="3" r="3"/></g>
<g transform="translate(484,198) scale(3.7766666666667)"><circle cx="3" cy="3" r="3"/></g>
<g transform="translate(528,198) scale(3.7766666666667)"><circle cx="3" cy="3" r="3"/></g>
<g transform="translate(572,198) scale(3.7766666666667)"><circle cx="3" cy="3" r="3"/></g>
<g transform="translate(594,198) scale(3.7766666666667)"><circle cx="3" cy="3" r="3"/></g>
<g transform="translate(704,198) scale(3.7766666666667)"><circle cx="3" cy="3" r="3"/></g>
<g transform="translate(726,198) scale(3.7766666666667)"><circle cx="3" cy="3" r="3"/></g>
<g transform="translate(748,198) scale(3.7766666666667)"><circle cx="3" cy="3" r="3"/></g>
<g transform="translate(88,220) scale(3.7766666666667)"><circle cx="3" cy="3" r="3"/></g>
<g transform="translate(110,220) scale(3.7766666666667)"><circle cx="3" cy="3" r="3"/></g>
<g transform="translate(132,220) scale(3.7766666666667)"><circle cx="3" cy="3" r="3"/></g>
<g transform="translate(176,220) scale(3.7766666666667)"><circle cx="3" cy="3" r="3"/></g>
<g transform="translate(220,220) scale(3.7766666666667)"><circle cx="3" cy="3" r="3"/></g>
<g transform="translate(286,220) scale(3.7766666666667)"><circle cx="3" cy="3" r="3"/></g>
<g transform="translate(374,220) scale(3.7766666666667)"><circle cx="3" cy="3" r="3"/></g>
<g transform="translate(396,220) scale(3.7766666666667)"><circle cx="3" cy="3" r="3"/></g>
<g transform="translate(418,220) scale(3.7766666666667)"><circle cx="3" cy="3" r="3"/></g>
<g transform="translate(506,220) scale(3.7766666666667)"><circle cx="3" cy="3" r="3"/></g>
<g transform="translate(682,220) scale(3.7766666666667)"><circle cx="3" cy="3" r="3"/></g>
<g transform="translate(726,220) scale(3.7766666666667)"><circle cx="3" cy="3" r="3"/></g>
<g transform="translate(770,220) scale(3.7766666666667)"><circle cx="3" cy="3" r="3"/></g>
<g transform="translate(792,220) scale(3.7766666666667)"><circle cx="3" cy="3" r="3"/></g>
<g transform="translate(814,220) scale(3.7766666666667)"><circle cx="3" cy="3" r="3"/></g>
<g transform="translate(880,220) scale(3.7766666666667)"><circle cx="3" cy="3" r="3"/></g>
<g transform="translate(902,220) scale(3.7766666666667)"><circle cx="3" cy="3" r="3"/></g>
<g transform="translate(924,220) scale(3.7766666666667)"><circle cx="3" cy="3" r="3"/></g>
<g transform="translate(66,242) scale(3.7766666666667)"><circle cx="3" cy="3" r="3"/></g>
<g transform="translate(110,242) scale(3.7766666666667)"><circle cx="3" cy="3" r="3"/></g>
<g transform="translate(132,242) scale(3.7766666666667)"><circle cx="3" cy="3" r="3"/></g>
<g transform="translate(198,242) scale(3.7766666666667)"><circle cx="3" cy="3" r="3"/></g>
<g transform="translate(220,242) scale(3.7766666666667)"><circle cx="3" cy="3" r="3"/></g>
<g transform="translate(330,242) scale(3.7766666666667)"><circle cx="3" cy="3" r="3"/></g>
<g transform="translate(418,242) scale(3.7766666666667)"><circle cx="3" cy="3" r="3"/></g>
<g transform="translate(440,242) scale(3.7766666666667)"><circle cx="3" cy="3" r="3"/></g>
<g transform="translate(462,242) scale(3.7766666666667)"><circle cx="3" cy="3" r="3"/></g>
<g transform="translate(660,242) scale(3.7766666666667)"><circle cx="3" cy="3" r="3"/></g>
<g transform="translate(704,242) scale(3.7766666666667)"><circle cx="3" cy="3" r="3"/></g>
<g transform="translate(726,242) scale(3.7766666666667)"><circle cx="3" cy="3" r="3"/></g>
<g transform="translate(748,242) scale(3.7766666666667)"><circle cx="3" cy="3" r="3"/></g>
<g transform="translate(836,242) scale(3.7766666666667)"><circle cx="3" cy="3" r="3"/></g>
<g transform="translate(902,242) scale(3.7766666666667)"><circle cx="3" cy="3" r="3"/></g>
<g transform="translate(88,264) scale(3.7766666666667)"><circle cx="3" cy="3" r="3"/></g>
<g transform="translate(154,264) scale(3.7766666666667)"><circle cx="3" cy="3" r="3"/></g>
<g transform="translate(176,264) scale(3.7766666666667)"><circle cx="3" cy="3" r="3"/></g>
<g transform="translate(286,264) scale(3.7766666666667)"><circle cx="3" cy="3" r="3"/></g>
<g transform="translate(308,264) scale(3.7766666666667)"><circle cx="3" cy="3" r="3"/></g>
<g transform="translate(330,264) scale(3.7766666666667)"><circle cx="3" cy="3" r="3"/></g>
<g transform="translate(352,264) scale(3.7766666666667)"><circle cx="3" cy="3" r="3"/></g>
<g transform="translate(396,264) scale(3.7766666666667)"><circle cx="3" cy="3" r="3"/></g>
<g transform="translate(440,264) scale(3.7766666666667)"><circle cx="3" cy="3" r="3"/></g>
<g transform="translate(484,264) scale(3.7766666666667)"><circle cx="3" cy="3" r="3"/></g>
<g transform="translate(506,264) scale(3.7766666666667)"><circle cx="3" cy="3" r="3"/></g>
<g transform="translate(550,264) scale(3.7766666666667)"><circle cx="3" cy="3" r="3"/></g>
<g transform="translate(572,264) scale(3.7766666666667)"><circle cx="3" cy="3" r="3"/></g>
<g transform="translate(594,264) scale(3.7766666666667)"><circle cx="3" cy="3" r="3"/></g>
<g transform="translate(638,264) scale(3.7766666666667)"><circle cx="3" cy="3" r="3"/></g>
<g transform="translate(704,264) scale(3.7766666666667)"><circle cx="3" cy="3" r="3"/></g>
<g transform="translate(814,264) scale(3.7766666666667)"><circle cx="3" cy="3" r="3"/></g>
<g transform="translate(836,264) scale(3.7766666666667)"><circle cx="3" cy="3" r="3"/></g>
<g transform="translate(902,264) scale(3.7766666666667)"><circle cx="3" cy="3" r="3"/></g>
<g transform="translate(88,286) scale(3.7766666666667)"><circle cx="3" cy="3" r="3"/></g>
<g transform="translate(198,286) scale(3.7766666666667)"><circle cx="3" cy="3" r="3"/></g>
<g transform="translate(242,286) scale(3.7766666666667)"><circle cx="3" cy="3" r="3"/></g>
<g transform="translate(264,286) scale(3.7766666666667)"><circle cx="3" cy="3" r="3"/></g>
<g transform="translate(308,286) scale(3.7766666666667)"><circle cx="3" cy="3" r="3"/></g>
<g transform="translate(374,286) scale(3.7766666666667)"><circle cx="3" cy="3" r="3"/></g>
<g transform="translate(418,286) scale(3.7766666666667)"><circle cx="3" cy="3" r="3"/></g>
<g transform="translate(440,286) scale(3.7766666666667)"><circle cx="3" cy="3" r="3"/></g>
<g transform="translate(506,286) scale(3.7766666666667)"><circle cx="3" cy="3" r="3"/></g>
<g transform="translate(528,286) scale(3.7766666666667)"><circle cx="3" cy="3" r="3"/></g>
<g transform="translate(550,286) scale(3.7766666666667)"><circle cx="3" cy="3" r="3"/></g>
<g transform="translate(594,286) scale(3.7766666666667)"><circle cx="3" cy="3" r="3"/></g>
<g transform="translate(660,286) scale(3.7766666666667)"><circle cx="3" cy="3" r="3"/></g>
<g transform="translate(704,286) scale(3.7766666666667)"><circle cx="3" cy="3" r="3"/></g>
<g transform="translate(726,286) scale(3.7766666666667)"><circle cx="3" cy="3" r="3"/></g>
<g transform="translate(748,286) scale(3.7766666666667)"><circle cx="3" cy="3" r="3"/></g>
<g transform="translate(814,286) scale(3.7766666666667)"><circle cx="3" cy="3" r="3"/></g>
<g transform="translate(858,286) scale(3.7766666666667)"><circle cx="3" cy="3" r="3"/></g>
<g transform="translate(902,286) scale(3.7766666666667)"><circle cx="3" cy="3" r="3"/></g>
<g transform="translate(66,308) scale(3.7766666666667)"><circle cx="3" cy="3" r="3"/></g>
<g transform="translate(132,308) scale(3.7766666666667)"><circle cx="3" cy="3" r="3"/></g>
<g transform="translate(154,308) scale(3.7766666666667)"><circle cx="3" cy="3" r="3"/></g>
<g transform="translate(176,308) scale(3.7766666666667)"><circle cx="3" cy="3" r="3"/></g>
<g transform="translate(198,308) scale(3.7766666666667)"><circle cx="3" cy="3" r="3"/></g>
<g transform="translate(220,308) scale(3.7766666666667)"><circle cx="3" cy="3" r="3"/></g>
<g transform="translate(308,308) scale(3.7766666666667)"><circle cx="3" cy="3" r="3"/></g>
<g transform="translate(374,308) scale(3.7766666666667)"><circle cx="3" cy="3" r="3"/></g>
<g transform="translate(440,308) scale(3.7766666666667)"><circle cx="3" cy="3" r="3"/></g>
<g transform="translate(528,308) scale(3.7766666666667)"><circle cx="3" cy="3" r="3"/></g>
<g transform="translate(748,308) scale(3.7766666666667)"><circle cx="3" cy="3" r="3"/></g>
<g transform="translate(858,308) scale(3.7766666666667)"><circle cx="3" cy="3" r="3"/></g>
<g transform="translate(924,308) scale(3.7766666666667)"><circle cx="3" cy="3" r="3"/></g>
<g transform="translate(44,330) scale(3.7766666666667)"><circle cx="3" cy="3" r="3"/></g>
<g transform="translate(66,330) scale(3.7766666666667)"><circle cx="3" cy="3" r="3"/></g>
<g transform="translate(88,330) scale(3.7766666666667)"><circle cx="3" cy="3" r="3"/></g>
<g transform="translate(110,330) scale(3.7766666666667)"><circle cx="3" cy="3" r="3"/></g>
<g transform="translate(132,330) scale(3.7766666666667)"><circle cx="3" cy="3" r="3"/></g>
<g transform="translate(264,330) scale(3.7766666666667)"><circle cx="3" cy="3" r="3"/></g>
<g transform="translate(286,330) scale(3.7766666666667)"><circle cx="3" cy="3" r="3"/></g>
<g transform="translate(352,330) scale(3.7766666666667)"><circle cx="3" cy="3" r="3"/></g>
<g transform="translate(418,330) scale(3.7766666666667)"><circle cx="3" cy="3" r="3"/></g>
<g transform="translate(528,330) scale(3.7766666666667)"><circle cx="3" cy="3" r="3"/></g>
<g transform="translate(616,330) scale(3.7766666666667)"><circle cx="3" cy="3" r="3"/></g>
<g transform="translate(638,330) scale(3.7766666666667)"><circle cx="3" cy="3" r="3"/></g>
<g transform="translate(660,330) scale(3.7766666666667)"><circle cx="3" cy="3" r="3"/></g>
<g transform="translate(682,330) scale(3.7766666666667)"><circle cx="3" cy="3" r="3"/></g>
<g transform="translate(770,330) scale(3.7766666666667)"><circle cx="3" cy="3" r="3"/></g>
<g transform="translate(836,330) scale(3.7766666666667)"><circle cx="3" cy="3" r="3"/></g>
<g transform="translate(880,330) scale(3.7766666666667)"><circle cx="3" cy="3" r="3"/></g>
<g transform="translate(66,352) scale(3.7766666666667)"><circle cx="3" cy="3" r="3"/></g>
<g transform="translate(176,352) scale(3.7766666666667)"><circle cx="3" cy="3" r="3"/></g>
<g transform="translate(264,352) scale(3.7766666666667)"><circle cx="3" cy="3" r="3"/></g>
<g transform="translate(352,352) scale(3.7766666666667)"><circle cx="3" cy="3" r="3"/></g>
<g transform="translate(418,352) scale(3.7766666666667)"><circle cx="3" cy="3" r="3"/></g>
<g transform="translate(440,352) scale(3.7766666666667)"><circle cx="3" cy="3" r="3"/></g>
<g transform="translate(484,352) scale(3.7766666666667)"><circle cx="3" cy="3" r="3"/></g>
<g transform="translate(594,352) scale(3.7766666666667)"><circle cx="3" cy="3" r="3"/></g>
<g transform="translate(616,352) scale(3.7766666666667)"><circle cx="3" cy="3" r="3"/></g>
<g transform="translate(704,352) scale(3.7766666666667)"><circle cx="3" cy="3" r="3"/></g>
<g transform="translate(748,352) scale(3.7766666666667)"><circle cx="3" cy="3" r="3"/></g>
<g transform="translate(770,352) scale(3.7766666666667)"><circle cx="3" cy="3" r="3"/></g>
<g transform="translate(792,352) scale(3.7766666666667)"><circle cx="3" cy="3" r="3"/></g>
<g transform="translate(44,374) scale(3.7766666666667)"><circle cx="3" cy="3" r="3"/></g>
<g transform="translate(66,374) scale(3.7766666666667)"><circle cx="3" cy="3" r="3"/></g>
<g transform="translate(220,374) scale(3.7766666666667)"><circle cx="3" cy="3" r="3"/></g>
<g transform="translate(286,374) scale(3.7766666666667)"><circle cx="3" cy="3" r="3"/></g>
<g transform="translate(308,374) scale(3.7766666666667)"><circle cx="3" cy="3" r="3"/></g>
<g transform="translate(352,374) scale(3.7766666666667)"><circle cx="3" cy="3" r="3"/></g>
<g transform="translate(374,374) scale(3.7766666666667)"><circle cx="3" cy="3" r="3"/></g>
<g transform="translate(396,374) scale(3.7766666666667)"><circle cx="3" cy="3" r="3"/></g>
<g transform="translate(484,374) scale(3.7766666666667)"><circle cx="3" cy="3" r="3"/></g>
<g transform="translate(506,374) scale(3.7766666666667)"><circle cx="3" cy="3" r="3"/></g>
<g transform="translate(528,374) scale(3.7766666666667)"><circle cx="3" cy="3" r="3"/></g>
<g transform="translate(572,374) scale(3.7766666666667)"><circle cx="3" cy="3" r="3"/></g>
<g transform="translate(616,374) scale(3.7766666666667)"><circle cx="3" cy="3" r="3"/></g>
<g transform="translate(660,374) scale(3.7766666666667)"><circle cx="3" cy="3" r="3"/></g>
<g transform="translate(704,374) scale(3.7766666666667)"><circle cx="3" cy="3" r="3"/></g>
<g transform="translate(770,374) scale(3.7766666666667)"><circle cx="3" cy="3" r="3"/></g>
<g transform="translate(792,374) scale(3.7766666666667)"><circle cx="3" cy="3" r="3"/></g>
<g transform="translate(814,374) scale(3.7766666666667)"><circle cx="3" cy="3" r="3"/></g>
<g transform="translate(836,374) scale(3.7766666666667)"><circle cx="3" cy="3" r="3"/></g>
<g transform="translate(858,374) scale(3.7766666666667)"><circle cx="3" cy="3" r="3"/></g>
<g transform="translate(902,374) scale(3.7766666666667)"><circle cx="3" cy="3" r="3"/></g>
<g transform="translate(44,396) scale(3.7766666666667)"><circle cx="3" cy="3" r="3"/></g>
<g transform="translate(132,396) scale(3.7766666666667)"><circle cx="3" cy="3" r="3"/></g>
<g transform="translate(176,396) scale(3.7766666666667)"><circle cx="3" cy="3" r="3"/></g>
<g transform="translate(198,396) scale(3.7766666666667)"><circle cx="3" cy="3" r="3"/></g>
<g transform="translate(286,396) scale(3.7766666666667)"><circle cx="3" cy="3" r="3"/></g>
<g transform="translate(330,396) scale(3.7766666666667)"><circle cx="3" cy="3" r="3"/></g>
<g transform="translate(396,396) scale(3.7766666666667)"><circle cx="3" cy="3" r="3"/></g>
<g transform="translate(506,396) scale(3.7766666666667)"><circle cx="3" cy="3" r="3"/></g>
<g transform="translate(528,396) scale(3.7766666666667)"><circle cx="3" cy="3" r="3"/></g>
<g transform="translate(748,396) scale(3.7766666666667)"><circle cx="3" cy="3" r="3"/></g>
<g transform="translate(814,396) scale(3.7766666666667)"><circle cx="3" cy="3" r="3"/></g>
<g transform="translate(902,396) scale(3.7766666666667)"><circle cx="3" cy="3" r="3"/></g>
<g transform="translate(88,418) scale(3.7766666666667)"><circle cx="3" cy="3" r="3"/></g>
<g transform="translate(110,418) scale(3.7766666666667)"><circle cx="3" cy="3" r="3"/></g>
<g transform="translate(132,418) scale(3.7766666666667)"><circle cx="3" cy="3" r="3"/></g>
<g transform="translate(198,418) scale(3.7766666666667)"><circle cx="3" cy="3" r="3"/></g>
<g transform="translate(286,418) scale(3.7766666666667)"><circle cx="3" cy="3" r="3"/></g>
<g transform="translate(330,418) scale(3.7766666666667)"><circle cx="3" cy="3" r="3"/></g>
<g transform="translate(352,418) scale(3.7766666666667)"><circle cx="3" cy="3" r="3"/></g>
<g transform="translate(374,418) scale(3.7766666666667)"><circle cx="3" cy="3" r="3"/></g>
<g transform="translate(396,418) scale(3.7766666666667)"><circle cx="3" cy="3" r="3"/></g>
<g transform="translate(440,418) scale(3.7766666666667)"><circle cx="3" cy="3" r="3"/></g>
<g transform="translate(462,418) scale(3.7766666666667)"><circle cx="3" cy="3" r="3"/></g>
<g transform="translate(484,418) scale(3.7766666666667)"><circle cx="3" cy="3" r="3"/></g>
<g transform="translate(528,418) scale(3.7766666666667)"><circle cx="3" cy="3" r="3"/></g>
<g transform="translate(616,418) scale(3.7766666666667)"><circle cx="3" cy="3" r="3"/></g>
<g transform="translate(638,418) scale(3.7766666666667)"><circle cx="3" cy="3" r="3"/></g>
<g transform="translate(748,418) scale(3.7766666666667)"><circle cx="3" cy="3" r="3"/></g>
<g transform="translate(770,418) scale(3.7766666666667)"><circle cx="3" cy="3" r="3"/></g>
<g transform="translate(792,418) scale(3.7766666666667)"><circle cx="3" cy="3" r="3"/></g>
<g transform="translate(814,418) scale(3.7766666666667)"><circle cx="3" cy="3" r="3"/></g>
<g transform="translate(836,418) scale(3.7766666666667)"><circle cx="3" cy="3" r="3"/></g>
<g transform="translate(880,418) scale(3.7766666666667)"><circle cx="3" cy="3" r="3"/></g>
<g transform="translate(902,418) scale(3.7766666666667)"><circle cx="3" cy="3" r="3"/></g>
<g transform="translate(44,440) scale(3.7766666666667)"><circle cx="3" cy="3" r="3"/></g>
<g transform="translate(132,440) scale(3.7766666666667)"><circle cx="3" cy="3" r="3"/></g>
<g transform="translate(176,440) scale(3.7766666666667)"><circle cx="3" cy="3" r="3"/></g>
<g transform="translate(198,440) scale(3.7766666666667)"><circle cx="3" cy="3" r="3"/></g>
<g transform="translate(220,440) scale(3.7766666666667)"><circle cx="3" cy="3" r="3"/></g>
<g transform="translate(264,440) scale(3.7766666666667)"><circle cx="3" cy="3" r="3"/></g>
<g transform="translate(286,440) scale(3.7766666666667)"><circle cx="3" cy="3" r="3"/></g>
<g transform="translate(308,440) scale(3.7766666666667)"><circle cx="3" cy="3" r="3"/></g>
<g transform="translate(352,440) scale(3.7766666666667)"><circle cx="3" cy="3" r="3"/></g>
<g transform="translate(374,440) scale(3.7766666666667)"><circle cx="3" cy="3" r="3"/></g>
<g transform="translate(396,440) scale(3.7766666666667)"><circle cx="3" cy="3" r="3"/></g>
<g transform="translate(440,440) scale(3.7766666666667)"><circle cx="3" cy="3" r="3"/></g>
<g transform="translate(462,440) scale(3.7766666666667)"><circle cx="3" cy="3" r="3"/></g>
<g transform="translate(484,440) scale(3.7766666666667)"><circle cx="3" cy="3" r="3"/></g>
<g transform="translate(506,440) scale(3.7766666666667)"><circle cx="3" cy="3" r="3"/></g>
<g transform="translate(528,440) scale(3.7766666666667)"><circle cx="3" cy="3" r="3"/></g>
<g transform="translate(550,440) scale(3.7766666666667)"><circle cx="3" cy="3" r="3"/></g>
<g transform="translate(572,440) scale(3.7766666666667)"><circle cx="3" cy="3" r="3"/></g>
<g transform="translate(594,440) scale(3.7766666666667)"><circle cx="3" cy="3" r="3"/></g>
<g transform="translate(638,440) scale(3.7766666666667)"><circle cx="3" cy="3" r="3"/></g>
<g transform="translate(704,440) scale(3.7766666666667)"><circle cx="3" cy="3" r="3"/></g>
<g transform="translate(770,440) scale(3.7766666666667)"><circle cx="3" cy="3" r="3"/></g>
<g transform="translate(836,440) scale(3.7766666666667)"><circle cx="3" cy="3" r="3"/></g>
<g transform="translate(44,462) scale(3.7766666666667)"><circle cx="3" cy="3" r="3"/></g>
<g transform="translate(88,462) scale(3.7766666666667)"><circle cx="3" cy="3" r="3"/></g>
<g transform="translate(110,462) scale(3.7766666666667)"><circle cx="3" cy="3" r="3"/></g>
<g transform="translate(242,462) scale(3.7766666666667)"><circle cx="3" cy="3" r="3"/></g>
<g transform="translate(286,462) scale(3.7766666666667)"><circle cx="3" cy="3" r="3"/></g>
<g transform="translate(308,462) scale(3.7766666666667)"><circle cx="3" cy="3" r="3"/></g>
<g transform="translate(330,462) scale(3.7766666666667)"><circle cx="3" cy="3" r="3"/></g>
<g transform="translate(374,462) scale(3.7766666666667)"><circle cx="3" cy="3" r="3"/></g>
<g transform="translate(396,462) scale(3.7766666666667)"><circle cx="3" cy="3" r="3"/></g>
<g transform="translate(484,462) scale(3.7766666666667)"><circle cx="3" cy="3" r="3"/></g>
<g transform="translate(506,462) scale(3.7766666666667)"><circle cx="3" cy="3" r="3"/></g>
<g transform="translate(550,462) scale(3.7766666666667)"><circle cx="3" cy="3" r="3"/></g>
<g transform="translate(572,462) scale(3.7766666666667)"><circle cx="3" cy="3" r="3"/></g>
<g transform="translate(616,462) scale(3.7766666666667)"><circle cx="3" cy="3" r="3"/></g>
<g transform="translate(660,462) scale(3.7766666666667)"><circle cx="3" cy="3" r="3"/></g>
<g transform="translate(770,462) scale(3.7766666666667)"><circle cx="3" cy="3" r="3"/></g>
<g transform="translate(814,462) scale(3.7766666666667)"><circle cx="3" cy="3" r="3"/></g>
<g transform="translate(836,462) scale(3.7766666666667)"><circle cx="3" cy="3" r="3"/></g>
<g transform="translate(858,462) scale(3.7766666666667)"><circle cx="3" cy="3" r="3"/></g>
<g transform="translate(902,462) scale(3.7766666666667)"><circle cx="3" cy="3" r="3"/></g>
<g transform="translate(924,462) scale(3.7766666666667)"><circle cx="3" cy="3" r="3"/></g>
<g transform="translate(44,484) scale(3.7766666666667)"><circle cx="3" cy="3" r="3"/></g>
<g transform="translate(132,484) scale(3.7766666666667)"><circle cx="3" cy="3" r="3"/></g>
<g transform="translate(176,484) scale(3.7766666666667)"><circle cx="3" cy="3" r="3"/></g>
<g transform="translate(198,484) scale(3.7766666666667)"><circle cx="3" cy="3" r="3"/></g>
<g transform="translate(242,484) scale(3.7766666666667)"><circle cx="3" cy="3" r="3"/></g>
<g transform="translate(286,484) scale(3.7766666666667)"><circle cx="3" cy="3" r="3"/></g>
<g transform="translate(396,484) scale(3.7766666666667)"><circle cx="3" cy="3" r="3"/></g>
<g transform="translate(484,484) scale(3.7766666666667)"><circle cx="3" cy="3" r="3"/></g>
<g transform="translate(506,484) scale(3.7766666666667)"><circle cx="3" cy="3" r="3"/></g>
<g transform="translate(638,484) scale(3.7766666666667)"><circle cx="3" cy="3" r="3"/></g>
<g transform="translate(660,484) scale(3.7766666666667)"><circle cx="3" cy="3" r="3"/></g>
<g transform="translate(704,484) scale(3.7766666666667)"><circle cx="3" cy="3" r="3"/></g>
<g transform="translate(726,484) scale(3.7766666666667)"><circle cx="3" cy="3" r="3"/></g>
<g transform="translate(748,484) scale(3.7766666666667)"><circle cx="3" cy="3" r="3"/></g>
<g transform="translate(770,484) scale(3.7766666666667)"><circle cx="3" cy="3" r="3"/></g>
<g transform="translate(814,484) scale(3.7766666666667)"><circle cx="3" cy="3" r="3"/></g>
<g transform="translate(836,484) scale(3.7766666666667)"><circle cx="3" cy="3" r="3"/></g>
<g transform="translate(858,484) scale(3.7766666666667)"><circle cx="3" cy="3" r="3"/></g>
<g transform="translate(902,484) scale(3.7766666666667)"><circle cx="3" cy="3" r="3"/></g>
<g transform="translate(924,484) scale(3.7766666666667)"><circle cx="3" cy="3" r="3"/></g>
<g transform="translate(110,506) scale(3.7766666666667)"><circle cx="3" cy="3" r="3"/></g>
<g transform="translate(132,506) scale(3.7766666666667)"><circle cx="3" cy="3" r="3"/></g>
<g transform="translate(154,506) scale(3.7766666666667)"><circle cx="3" cy="3" r="3"/></g>
<g transform="translate(198,506) scale(3.7766666666667)"><circle cx="3" cy="3" r="3"/></g>
<g transform="translate(264,506) scale(3.7766666666667)"><circle cx="3" cy="3" r="3"/></g>
<g transform="translate(352,506) scale(3.7766666666667)"><circle cx="3" cy="3" r="3"/></g>
<g transform="translate(396,506) scale(3.7766666666667)"><circle cx="3" cy="3" r="3"/></g>
<g transform="translate(440,506) scale(3.7766666666667)"><circle cx="3" cy="3" r="3"/></g>
<g transform="translate(528,506) scale(3.7766666666667)"><circle cx="3" cy="3" r="3"/></g>
<g transform="translate(572,506) scale(3.7766666666667)"><circle cx="3" cy="3" r="3"/></g>
<g transform="translate(638,506) scale(3.7766666666667)"><circle cx="3" cy="3" r="3"/></g>
<g transform="translate(660,506) scale(3.7766666666667)"><circle cx="3" cy="3" r="3"/></g>
<g transform="translate(726,506) scale(3.7766666666667)"><circle cx="3" cy="3" r="3"/></g>
<g transform="translate(792,506) scale(3.7766666666667)"><circle cx="3" cy="3" r="3"/></g>
<g transform="translate(814,506) scale(3.7766666666667)"><circle cx="3" cy="3" r="3"/></g>
<g transform="translate(836,506) scale(3.7766666666667)"><circle cx="3" cy="3" r="3"/></g>
<g transform="translate(858,506) scale(3.7766666666667)"><circle cx="3" cy="3" r="3"/></g>
<g transform="translate(880,506) scale(3.7766666666667)"><circle cx="3" cy="3" r="3"/></g>
<g transform="translate(924,506) scale(3.7766666666667)"><circle cx="3" cy="3" r="3"/></g>
<g transform="translate(66,528) scale(3.7766666666667)"><circle cx="3" cy="3" r="3"/></g>
<g transform="translate(88,528) scale(3.7766666666667)"><circle cx="3" cy="3" r="3"/></g>
<g transform="translate(110,528) scale(3.7766666666667)"><circle cx="3" cy="3" r="3"/></g>
<g transform="translate(176,528) scale(3.7766666666667)"><circle cx="3" cy="3" r="3"/></g>
<g transform="translate(198,528) scale(3.7766666666667)"><circle cx="3" cy="3" r="3"/></g>
<g transform="translate(352,528) scale(3.7766666666667)"><circle cx="3" cy="3" r="3"/></g>
<g transform="translate(396,528) scale(3.7766666666667)"><circle cx="3" cy="3" r="3"/></g>
<g transform="translate(418,528) scale(3.7766666666667)"><circle cx="3" cy="3" r="3"/></g>
<g transform="translate(484,528) scale(3.7766666666667)"><circle cx="3" cy="3" r="3"/></g>
<g transform="translate(550,528) scale(3.7766666666667)"><circle cx="3" cy="3" r="3"/></g>
<g transform="translate(682,528) scale(3.7766666666667)"><circle cx="3" cy="3" r="3"/></g>
<g transform="translate(704,528) scale(3.7766666666667)"><circle cx="3" cy="3" r="3"/></g>
<g transform="translate(726,528) scale(3.7766666666667)"><circle cx="3" cy="3" r="3"/></g>
<g transform="translate(748,528) scale(3.7766666666667)"><circle cx="3" cy="3" r="3"/></g>
<g transform="translate(792,528) scale(3.7766666666667)"><circle cx="3" cy="3" r="3"/></g>
<g transform="translate(836,528) scale(3.7766666666667)"><circle cx="3" cy="3" r="3"/></g>
<g transform="translate(858,528) scale(3.7766666666667)"><circle cx="3" cy="3" r="3"/></g>
<g transform="translate(902,528) scale(3.7766666666667)"><circle cx="3" cy="3" r="3"/></g>
<g transform="translate(44,550) scale(3.7766666666667)"><circle cx="3" cy="3" r="3"/></g>
<g transform="translate(66,550) scale(3.7766666666667)"><circle cx="3" cy="3" r="3"/></g>
<g transform="translate(88,550) scale(3.7766666666667)"><circle cx="3" cy="3" r="3"/></g>
<g transform="translate(110,550) scale(3.7766666666667)"><circle cx="3" cy="3" r="3"/></g>
<g transform="translate(132,550) scale(3.7766666666667)"><circle cx="3" cy="3" r="3"/></g>
<g transform="translate(154,550) scale(3.7766666666667)"><circle cx="3" cy="3" r="3"/></g>
<g transform="translate(242,550) scale(3.7766666666667)"><circle cx="3" cy="3" r="3"/></g>
<g transform="translate(264,550) scale(3.7766666666667)"><circle cx="3" cy="3" r="3"/></g>
<g transform="translate(286,550) scale(3.7766666666667)"><circle cx="3" cy="3" r="3"/></g>
<g transform="translate(396,550) scale(3.7766666666667)"><circle cx="3" cy="3" r="3"/></g>
<g transform="translate(462,550) scale(3.7766666666667)"><circle cx="3" cy="3" r="3"/></g>
<g transform="translate(506,550) scale(3.7766666666667)"><circle cx="3" cy="3" r="3"/></g>
<g transform="translate(550,550) scale(3.7766666666667)"><circle cx="3" cy="3" r="3"/></g>
<g transform="translate(572,550) scale(3.7766666666667)"><circle cx="3" cy="3" r="3"/></g>
<g transform="translate(594,550) scale(3.7766666666667)"><circle cx="3" cy="3" r="3"/></g>
<g transform="translate(616,550) scale(3.7766666666667)"><circle cx="3" cy="3" r="3"/></g>
<g transform="translate(704,550) scale(3.7766666666667)"><circle cx="3" cy="3" r="3"/></g>
<g transform="translate(726,550) scale(3.7766666666667)"><circle cx="3" cy="3" r="3"/></g>
<g transform="translate(814,550) scale(3.7766666666667)"><circle cx="3" cy="3" r="3"/></g>
<g transform="translate(836,550) scale(3.7766666666667)"><circle cx="3" cy="3" r="3"/></g>
<g transform="translate(924,550) scale(3.7766666666667)"><circle cx="3" cy="3" r="3"/></g>
<g transform="translate(44,572) scale(3.7766666666667)"><circle cx="3" cy="3" r="3"/></g>
<g transform="translate(88,572) scale(3.7766666666667)"><circle cx="3" cy="3" r="3"/></g>
<g transform="translate(110,572) scale(3.7766666666667)"><circle cx="3" cy="3" r="3"/></g>
<g transform="translate(176,572) scale(3.7766666666667)"><circle cx="3" cy="3" r="3"/></g>
<g transform="translate(264,572) scale(3.7766666666667)"><circle cx="3" cy="3" r="3"/></g>
<g transform="translate(308,572) scale(3.7766666666667)"><circle cx="3" cy="3" r="3"/></g>
<g transform="translate(352,572) scale(3.7766666666667)"><circle cx="3" cy="3" r="3"/></g>
<g transform="translate(374,572) scale(3.7766666666667)"><circle cx="3" cy="3" r="3"/></g>
<g transform="translate(396,572) scale(3.7766666666667)"><circle cx="3" cy="3" r="3"/></g>
<g transform="translate(418,572) scale(3.7766666666667)"><circle cx="3" cy="3" r="3"/></g>
<g transform="translate(484,572) scale(3.7766666666667)"><circle cx="3" cy="3" r="3"/></g>
<g transform="translate(528,572) scale(3.7766666666667)"><circle cx="3" cy="3" r="3"/></g>
<g transform="translate(572,572) scale(3.7766666666667)"><circle cx="3" cy="3" r="3"/></g>
<g transform="translate(726,572) scale(3.7766666666667)"><circle cx="3" cy="3" r="3"/></g>
<g transform="translate(748,572) scale(3.7766666666667)"><circle cx="3" cy="3" r="3"/></g>
<g transform="translate(814,572) scale(3.7766666666667)"><circle cx="3" cy="3" r="3"/></g>
<g transform="translate(836,572) scale(3.7766666666667)"><circle cx="3" cy="3" r="3"/></g>
<g transform="translate(858,572) scale(3.7766666666667)"><circle cx="3" cy="3" r="3"/></g>
<g transform="translate(902,572) scale(3.7766666666667)"><circle cx="3" cy="3" r="3"/></g>
<g transform="translate(88,594) scale(3.7766666666667)"><circle cx="3" cy="3" r="3"/></g>
<g transform="translate(110,594) scale(3.7766666666667)"><circle cx="3" cy="3" r="3"/></g>
<g transform="translate(154,594) scale(3.7766666666667)"><circle cx="3" cy="3" r="3"/></g>
<g transform="translate(198,594) scale(3.7766666666667)"><circle cx="3" cy="3" r="3"/></g>
<g transform="translate(264,594) scale(3.7766666666667)"><circle cx="3" cy="3" r="3"/></g>
<g transform="translate(286,594) scale(3.7766666666667)"><circle cx="3" cy="3" r="3"/></g>
<g transform="translate(374,594) scale(3.7766666666667)"><circle cx="3" cy="3" r="3"/></g>
<g transform="translate(440,594) scale(3.7766666666667)"><circle cx="3" cy="3" r="3"/></g>
<g transform="translate(462,594) scale(3.7766666666667)"><circle cx="3" cy="3" r="3"/></g>
<g transform="translate(484,594) scale(3.7766666666667)"><circle cx="3" cy="3" r="3"/></g>
<g transform="translate(506,594) scale(3.7766666666667)"><circle cx="3" cy="3" r="3"/></g>
<g transform="translate(528,594) scale(3.7766666666667)"><circle cx="3" cy="3" r="3"/></g>
<g transform="translate(550,594) scale(3.7766666666667)"><circle cx="3" cy="3" r="3"/></g>
<g transform="translate(660,594) scale(3.7766666666667)"><circle cx="3" cy="3" r="3"/></g>
<g transform="translate(726,594) scale(3.7766666666667)"><circle cx="3" cy="3" r="3"/></g>
<g transform="translate(814,594) scale(3.7766666666667)"><circle cx="3" cy="3" r="3"/></g>
<g transform="translate(66,616) scale(3.7766666666667)"><circle cx="3" cy="3" r="3"/></g>
<g transform="translate(88,616) scale(3.7766666666667)"><circle cx="3" cy="3" r="3"/></g>
<g transform="translate(154,616) scale(3.7766666666667)"><circle cx="3" cy="3" r="3"/></g>
<g transform="translate(176,616) scale(3.7766666666667)"><circle cx="3" cy="3" r="3"/></g>
<g transform="translate(198,616) scale(3.7766666666667)"><circle cx="3" cy="3" r="3"/></g>
<g transform="translate(220,616) scale(3.7766666666667)"><circle cx="3" cy="3" r="3"/></g>
<g transform="translate(242,616) scale(3.7766666666667)"><circle cx="3" cy="3" r="3"/></g>
<g transform="translate(264,616) scale(3.7766666666667)"><circle cx="3" cy="3" r="3"/></g>
<g transform="translate(286,616) scale(3.7766666666667)"><circle cx="3" cy="3" r="3"/></g>
<g transform="translate(308,616) scale(3.7766666666667)"><circle cx="3" cy="3" r="3"/></g>
<g transform="translate(330,616) scale(3.7766666666667)"><circle cx="3" cy="3" r="3"/></g>
<g transform="translate(352,616) scale(3.7766666666667)"><circle cx="3" cy="3" r="3"/></g>
<g transform="translate(418,616) scale(3.7766666666667)"><circle cx="3" cy="3" r="3"/></g>
<g transform="translate(440,616) scale(3.7766666666667)"><circle cx="3" cy="3" r="3"/></g>
<g transform="translate(462,616) scale(3.7766666666667)"><circle cx="3" cy="3" r="3"/></g>
<g transform="translate(484,616) scale(3.7766666666667)"><circle cx="3" cy="3" r="3"/></g>
<g transform="translate(572,616) scale(3.7766666666667)"><circle cx="3" cy="3" r="3"/></g>
<g transform="translate(638,616) scale(3.7766666666667)"><circle cx="3" cy="3" r="3"/></g>
<g transform="translate(704,616) scale(3.7766666666667)"><circle cx="3" cy="3" r="3"/></g>
<g transform="translate(770,616) scale(3.7766666666667)"><circle cx="3" cy="3" r="3"/></g>
<g transform="translate(814,616) scale(3.7766666666667)"><circle cx="3" cy="3" r="3"/></g>
<g transform="translate(836,616) scale(3.7766666666667)"><circle cx="3" cy="3" r="3"/></g>
<g transform="translate(858,616) scale(3.7766666666667)"><circle cx="3" cy="3" r="3"/></g>
<g transform="translate(66,638) scale(3.7766666666667)"><circle cx="3" cy="3" r="3"/></g>
<g transform="translate(110,638) scale(3.7766666666667)"><circle cx="3" cy="3" r="3"/></g>
<g transform="translate(132,638) scale(3.7766666666667)"><circle cx="3" cy="3" r="3"/></g>
<g transform="translate(198,638) scale(3.7766666666667)"><circle cx="3" cy="3" r="3"/></g>
<g transform="translate(264,638) scale(3.7766666666667)"><circle cx="3" cy="3" r="3"/></g>
<g transform="translate(286,638) scale(3.7766666666667)"><circle cx="3" cy="3" r="3"/></g>
<g transform="translate(308,638) scale(3.7766666666667)"><circle cx="3" cy="3" r="3"/></g>
<g transform="translate(330,638) scale(3.7766666666667)"><circle cx="3" cy="3" r="3"/></g>
<g transform="translate(396,638) scale(3.7766666666667)"><circle cx="3" cy="3" r="3"/></g>
<g transform="translate(484,638) scale(3.7766666666667)"><circle cx="3" cy="3" r="3"/></g>
<g transform="translate(528,638) scale(3.7766666666667)"><circle cx="3" cy="3" r="3"/></g>
<g transform="translate(572,638) scale(3.7766666666667)"><circle cx="3" cy="3" r="3"/></g>
<g transform="translate(660,638) scale(3.7766666666667)"><circle cx="3" cy="3" r="3"/></g>
<g transform="translate(748,638) scale(3.7766666666667)"><circle cx="3" cy="3" r="3"/></g>
<g transform="translate(770,638) scale(3.7766666666667)"><circle cx="3" cy="3" r="3"/></g>
<g transform="translate(858,638) scale(3.7766666666667)"><circle cx="3" cy="3" r="3"/></g>
<g transform="translate(44,660) scale(3.7766666666667)"><circle cx="3" cy="3" r="3"/></g>
<g transform="translate(66,660) scale(3.7766666666667)"><circle cx="3" cy="3" r="3"/></g>
<g transform="translate(110,660) scale(3.7766666666667)"><circle cx="3" cy="3" r="3"/></g>
<g transform="translate(132,660) scale(3.7766666666667)"><circle cx="3" cy="3" r="3"/></g>
<g transform="translate(154,660) scale(3.7766666666667)"><circle cx="3" cy="3" r="3"/></g>
<g transform="translate(176,660) scale(3.7766666666667)"><circle cx="3" cy="3" r="3"/></g>
<g transform="translate(220,660) scale(3.7766666666667)"><circle cx="3" cy="3" r="3"/></g>
<g transform="translate(286,660) scale(3.7766666666667)"><circle cx="3" cy="3" r="3"/></g>
<g transform="translate(352,660) scale(3.7766666666667)"><circle cx="3" cy="3" r="3"/></g>
<g transform="translate(374,660) scale(3.7766666666667)"><circle cx="3" cy="3" r="3"/></g>
<g transform="translate(418,660) scale(3.7766666666667)"><circle cx="3" cy="3" r="3"/></g>
<g transform="translate(506,660) scale(3.7766666666667)"><circle cx="3" cy="3" r="3"/></g>
<g transform="translate(528,660) scale(3.7766666666667)"><circle cx="3" cy="3" r="3"/></g>
<g transform="translate(616,660) scale(3.7766666666667)"><circle cx="3" cy="3" r="3"/></g>
<g transform="translate(638,660) scale(3.7766666666667)"><circle cx="3" cy="3" r="3"/></g>
<g transform="translate(660,660) scale(3.7766666666667)"><circle cx="3" cy="3" r="3"/></g>
<g transform="translate(704,660) scale(3.7766666666667)"><circle cx="3" cy="3" r="3"/></g>
<g transform="translate(770,660) scale(3.7766666666667)"><circle cx="3" cy="3" r="3"/></g>
<g transform="translate(924,660) scale(3.7766666666667)"><circle cx="3" cy="3" r="3"/></g>
<g transform="translate(44,682) scale(3.7766666666667)"><circle cx="3" cy="3" r="3"/></g>
<g transform="translate(88,682) scale(3.7766666666667)"><circle cx="3" cy="3" r="3"/></g>
<g transform="translate(198,682) scale(3.7766666666667)"><circle cx="3" cy="3" r="3"/></g>
<g transform="translate(220,682) scale(3.7766666666667)"><circle cx="3" cy="3" r="3"/></g>
<g transform="translate(242,682) scale(3.7766666666667)"><circle cx="3" cy="3" r="3"/></g>
<g transform="translate(264,682) scale(3.7766666666667)"><circle cx="3" cy="3" r="3"/></g>
<g transform="translate(286,682) scale(3.7766666666667)"><circle cx="3" cy="3" r="3"/></g>
<g transform="translate(308,682) scale(3.7766666666667)"><circle cx="3" cy="3" r="3"/></g>
<g transform="translate(330,682) scale(3.7766666666667)"><circle cx="3" cy="3" r="3"/></g>
<g transform="translate(374,682) scale(3.7766666666667)"><circle cx="3" cy="3" r="3"/></g>
<g transform="translate(396,682) scale(3.7766666666667)"><circle cx="3" cy="3" r="3"/></g>
<g transform="translate(418,682) scale(3.7766666666667)"><circle cx="3" cy="3" r="3"/></g>
<g transform="translate(440,682) scale(3.7766666666667)"><circle cx="3" cy="3" r="3"/></g>
<g transform="translate(484,682) scale(3.7766666666667)"><circle cx="3" cy="3" r="3"/></g>
<g transform="translate(506,682) scale(3.7766666666667)"><circle cx="3" cy="3" r="3"/></g>
<g transform="translate(528,682) scale(3.7766666666667)"><circle cx="3" cy="3" r="3"/></g>
<g transform="translate(638,682) scale(3.7766666666667)"><circle cx="3" cy="3" r="3"/></g>
<g transform="translate(682,682) scale(3.7766666666667)"><circle cx="3" cy="3" r="3"/></g>
<g transform="translate(704,682) scale(3.7766666666667)"><circle cx="3" cy="3" r="3"/></g>
<g transform="translate(748,682) scale(3.7766666666667)"><circle cx="3" cy="3" r="3"/></g>
<g transform="translate(770,682) scale(3.7766666666667)"><circle cx="3" cy="3" r="3"/></g>
<g transform="translate(814,682) scale(3.7766666666667)"><circle cx="3" cy="3" r="3"/></g>
<g transform="translate(836,682) scale(3.7766666666667)"><circle cx="3" cy="3" r="3"/></g>
<g transform="translate(858,682) scale(3.7766666666667)"><circle cx="3" cy="3" r="3"/></g>
<g transform="translate(44,704) scale(3.7766666666667)"><circle cx="3" cy="3" r="3"/></g>
<g transform="translate(132,704) scale(3.7766666666667)"><circle cx="3" cy="3" r="3"/></g>
<g transform="translate(176,704) scale(3.7766666666667)"><circle cx="3" cy="3" r="3"/></g>
<g transform="translate(220,704) scale(3.7766666666667)"><circle cx="3" cy="3" r="3"/></g>
<g transform="translate(242,704) scale(3.7766666666667)"><circle cx="3" cy="3" r="3"/></g>
<g transform="translate(330,704) scale(3.7766666666667)"><circle cx="3" cy="3" r="3"/></g>
<g transform="translate(352,704) scale(3.7766666666667)"><circle cx="3" cy="3" r="3"/></g>
<g transform="translate(374,704) scale(3.7766666666667)"><circle cx="3" cy="3" r="3"/></g>
<g transform="translate(440,704) scale(3.7766666666667)"><circle cx="3" cy="3" r="3"/></g>
<g transform="translate(550,704) scale(3.7766666666667)"><circle cx="3" cy="3" r="3"/></g>
<g transform="translate(572,704) scale(3.7766666666667)"><circle cx="3" cy="3" r="3"/></g>
<g transform="translate(616,704) scale(3.7766666666667)"><circle cx="3" cy="3" r="3"/></g>
<g transform="translate(638,704) scale(3.7766666666667)"><circle cx="3" cy="3" r="3"/></g>
<g transform="translate(660,704) scale(3.7766666666667)"><circle cx="3" cy="3" r="3"/></g>
<g transform="translate(682,704) scale(3.7766666666667)"><circle cx="3" cy="3" r="3"/></g>
<g transform="translate(704,704) scale(3.7766666666667)"><circle cx="3" cy="3" r="3"/></g>
<g transform="translate(726,704) scale(3.7766666666667)"><circle cx="3" cy="3" r="3"/></g>
<g transform="translate(770,704) scale(3.7766666666667)"><circle cx="3" cy="3" r="3"/></g>
<g transform="translate(880,704) scale(3.7766666666667)"><circle cx="3" cy="3" r="3"/></g>
<g transform="translate(44,726) scale(3.7766666666667)"><circle cx="3" cy="3" r="3"/></g>
<g transform="translate(110,726) scale(3.7766666666667)"><circle cx="3" cy="3" r="3"/></g>
<g transform="translate(132,726) scale(3.7766666666667)"><circle cx="3" cy="3" r="3"/></g>
<g transform="translate(154,726) scale(3.7766666666667)"><circle cx="3" cy="3" r="3"/></g>
<g transform="translate(220,726) scale(3.7766666666667)"><circle cx="3" cy="3" r="3"/></g>
<g transform="translate(242,726) scale(3.7766666666667)"><circle cx="3" cy="3" r="3"/></g>
<g transform="translate(264,726) scale(3.7766666666667)"><circle cx="3" cy="3" r="3"/></g>
<g transform="translate(286,726) scale(3.7766666666667)"><circle cx="3" cy="3" r="3"/></g>
<g transform="translate(352,726) scale(3.7766666666667)"><circle cx="3" cy="3" r="3"/></g>
<g transform="translate(440,726) scale(3.7766666666667)"><circle cx="3" cy="3" r="3"/></g>
<g transform="translate(462,726) scale(3.7766666666667)"><circle cx="3" cy="3" r="3"/></g>
<g transform="translate(506,726) scale(3.7766666666667)"><circle cx="3" cy="3" r="3"/></g>
<g transform="translate(594,726) scale(3.7766666666667)"><circle cx="3" cy="3" r="3"/></g>
<g transform="translate(616,726) scale(3.7766666666667)"><circle cx="3" cy="3" r="3"/></g>
<g transform="translate(638,726) scale(3.7766666666667)"><circle cx="3" cy="3" r="3"/></g>
<g transform="translate(726,726) scale(3.7766666666667)"><circle cx="3" cy="3" r="3"/></g>
<g transform="translate(748,726) scale(3.7766666666667)"><circle cx="3" cy="3" r="3"/></g>
<g transform="translate(770,726) scale(3.7766666666667)"><circle cx="3" cy="3" r="3"/></g>
<g transform="translate(792,726) scale(3.7766666666667)"><circle cx="3" cy="3" r="3"/></g>
<g transform="translate(858,726) scale(3.7766666666667)"><circle cx="3" cy="3" r="3"/></g>
<g transform="translate(902,726) scale(3.7766666666667)"><circle cx="3" cy="3" r="3"/></g>
<g transform="translate(924,726) scale(3.7766666666667)"><circle cx="3" cy="3" r="3"/></g>
<g transform="translate(44,748) scale(3.7766666666667)"><circle cx="3" cy="3" r="3"/></g>
<g transform="translate(88,748) scale(3.7766666666667)"><circle cx="3" cy="3" r="3"/></g>
<g transform="translate(154,748) scale(3.7766666666667)"><circle cx="3" cy="3" r="3"/></g>
<g transform="translate(176,748) scale(3.7766666666667)"><circle cx="3" cy="3" r="3"/></g>
<g transform="translate(220,748) scale(3.7766666666667)"><circle cx="3" cy="3" r="3"/></g>
<g transform="translate(264,748) scale(3.7766666666667)"><circle cx="3" cy="3" r="3"/></g>
<g transform="translate(352,748) scale(3.7766666666667)"><circle cx="3" cy="3" r="3"/></g>
<g transform="translate(440,748) scale(3.7766666666667)"><circle cx="3" cy="3" r="3"/></g>
<g transform="translate(462,748) scale(3.7766666666667)"><circle cx="3" cy="3" r="3"/></g>
<g transform="translate(484,748) scale(3.7766666666667)"><circle cx="3" cy="3" r="3"/></g>
<g transform="translate(528,748) scale(3.7766666666667)"><circle cx="3" cy="3" r="3"/></g>
<g transform="translate(550,748) scale(3.7766666666667)"><circle cx="3" cy="3" r="3"/></g>
<g transform="translate(572,748) scale(3.7766666666667)"><circle cx="3" cy="3" r="3"/></g>
<g transform="translate(594,748) scale(3.7766666666667)"><circle cx="3" cy="3" r="3"/></g>
<g transform="translate(638,748) scale(3.7766666666667)"><circle cx="3" cy="3" r="3"/></g>
<g transform="translate(660,748) scale(3.7766666666667)"><circle cx="3" cy="3" r="3"/></g>
<g transform="translate(704,748) scale(3.7766666666667)"><circle cx="3" cy="3" r="3"/></g>
<g transform="translate(726,748) scale(3.7766666666667)"><circle cx="3" cy="3" r="3"/></g>
<g transform="translate(748,748) scale(3.7766666666667)"><circle cx="3" cy="3" r="3"/></g>
<g transform="translate(770,748) scale(3.7766666666667)"><circle cx="3" cy="3" r="3"/></g>
<g transform="translate(792,748) scale(3.7766666666667)"><circle cx="3" cy="3" r="3"/></g>
<g transform="translate(814,748) scale(3.7766666666667)"><circle cx="3" cy="3" r="3"/></g>
<g transform="translate(836,748) scale(3.7766666666667)"><circle cx="3" cy="3" r="3"/></g>
<g transform="translate(858,748) scale(3.7766666666667)"><circle cx="3" cy="3" r="3"/></g>
<g transform="translate(880,748) scale(3.7766666666667)"><circle cx="3" cy="3" r="3"/></g>
<g transform="translate(924,748) scale(3.7766666666667)"><circle cx="3" cy="3" r="3"/></g>
<g transform="translate(220,770) scale(3.7766666666667)"><circle cx="3" cy="3" r="3"/></g>
<g transform="translate(330,770) scale(3.7766666666667)"><circle cx="3" cy="3" r="3"/></g>
<g transform="translate(352,770) scale(3.7766666666667)"><circle cx="3" cy="3" r="3"/></g>
<g transform="translate(374,770) scale(3.7766666666667)"><circle cx="3" cy="3" r="3"/></g>
<g transform="translate(396,770) scale(3.7766666666667)"><circle cx="3" cy="3" r="3"/></g>
<g transform="translate(440,770) scale(3.7766666666667)"><circle cx="3" cy="3" r="3"/></g>
<g transform="translate(462,770) scale(3.7766666666667)"><circle cx="3" cy="3" r="3"/></g>
<g transform="translate(550,770) scale(3.7766666666667)"><circle cx="3" cy="3" r="3"/></g>
<g transform="translate(616,770) scale(3.7766666666667)"><circle cx="3" cy="3" r="3"/></g>
<g transform="translate(638,770) scale(3.7766666666667)"><circle cx="3" cy="3" r="3"/></g>
<g transform="translate(660,770) scale(3.7766666666667)"><circle cx="3" cy="3" r="3"/></g>
<g transform="translate(682,770) scale(3.7766666666667)"><circle cx="3" cy="3" r="3"/></g>
<g transform="translate(726,770) scale(3.7766666666667)"><circle cx="3" cy="3" r="3"/></g>
<g transform="translate(748,770) scale(3.7766666666667)"><circle cx="3" cy="3" r="3"/></g>
<g transform="translate(836,770) scale(3.7766666666667)"><circle cx="3" cy="3" r="3"/></g>
<g transform="translate(880,770) scale(3.7766666666667)"><circle cx="3" cy="3" r="3"/></g>
<g transform="translate(902,770) scale(3.7766666666667)"><circle cx="3" cy="3" r="3"/></g>
<g transform="translate(924,770) scale(3.7766666666667)"><circle cx="3" cy="3" r="3"/></g>
<g transform="translate(242,792) scale(3.7766666666667)"><circle cx="3" cy="3" r="3"/></g>
<g transform="translate(264,792) scale(3.7766666666667)"><circle cx="3" cy="3" r="3"/></g>
<g transform="translate(286,792) scale(3.7766666666667)"><circle cx="3" cy="3" r="3"/></g>
<g transform="translate(308,792) scale(3.7766666666667)"><circle cx="3" cy="3" r="3"/></g>
<g transform="translate(330,792) scale(3.7766666666667)"><circle cx="3" cy="3" r="3"/></g>
<g transform="translate(374,792) scale(3.7766666666667)"><circle cx="3" cy="3" r="3"/></g>
<g transform="translate(462,792) scale(3.7766666666667)"><circle cx="3" cy="3" r="3"/></g>
<g transform="translate(484,792) scale(3.7766666666667)"><circle cx="3" cy="3" r="3"/></g>
<g transform="translate(506,792) scale(3.7766666666667)"><circle cx="3" cy="3" r="3"/></g>
<g transform="translate(528,792) scale(3.7766666666667)"><circle cx="3" cy="3" r="3"/></g>
<g transform="translate(550,792) scale(3.7766666666667)"><circle cx="3" cy="3" r="3"/></g>
<g transform="translate(594,792) scale(3.7766666666667)"><circle cx="3" cy="3" r="3"/></g>
<g transform="translate(616,792) scale(3.7766666666667)"><circle cx="3" cy="3" r="3"/></g>
<g transform="translate(638,792) scale(3.7766666666667)"><circle cx="3" cy="3" r="3"/></g>
<g transform="translate(682,792) scale(3.7766666666667)"><circle cx="3" cy="3" r="3"/></g>
<g transform="translate(748,792) scale(3.7766666666667)"><circle cx="3" cy="3" r="3"/></g>
<g transform="translate(792,792) scale(3.7766666666667)"><circle cx="3" cy="3" r="3"/></g>
<g transform="translate(836,792) scale(3.7766666666667)"><circle cx="3" cy="3" r="3"/></g>
<g transform="translate(880,792) scale(3.7766666666667)"><circle cx="3" cy="3" r="3"/></g>
<g transform="translate(242,814) scale(3.7766666666667)"><circle cx="3" cy="3" r="3"/></g>
<g transform="translate(286,814) scale(3.7766666666667)"><circle cx="3" cy="3" r="3"/></g>
<g transform="translate(308,814) scale(3.7766666666667)"><circle cx="3" cy="3" r="3"/></g>
<g transform="translate(330,814) scale(3.7766666666667)"><circle cx="3" cy="3" r="3"/></g>
<g transform="translate(396,814) scale(3.7766666666667)"><circle cx="3" cy="3" r="3"/></g>
<g transform="translate(418,814) scale(3.7766666666667)"><circle cx="3" cy="3" r="3"/></g>
<g transform="translate(440,814) scale(3.7766666666667)"><circle cx="3" cy="3" r="3"/></g>
<g transform="translate(462,814) scale(3.7766666666667)"><circle cx="3" cy="3" r="3"/></g>
<g transform="translate(506,814) scale(3.7766666666667)"><circle cx="3" cy="3" r="3"/></g>
<g transform="translate(594,814) scale(3.7766666666667)"><circle cx="3" cy="3" r="3"/></g>
<g transform="translate(682,814) scale(3.7766666666667)"><circle cx="3" cy="3" r="3"/></g>
<g transform="translate(704,814) scale(3.7766666666667)"><circle cx="3" cy="3" r="3"/></g>
<g transform="translate(726,814) scale(3.7766666666667)"><circle cx="3" cy="3" r="3"/></g>
<g transform="translate(748,814) scale(3.7766666666667)"><circle cx="3" cy="3" r="3"/></g>
<g transform="translate(836,814) scale(3.7766666666667)"><circle cx="3" cy="3" r="3"/></g>
<g transform="translate(858,814) scale(3.7766666666667)"><circle cx="3" cy="3" r="3"/></g>
<g transform="translate(880,814) scale(3.7766666666667)"><circle cx="3" cy="3" r="3"/></g>
<g transform="translate(902,814) scale(3.7766666666667)"><circle cx="3" cy="3" r="3"/></g>
<g transform="translate(924,814) scale(3.7766666666667)"><circle cx="3" cy="3" r="3"/></g>
<g transform="translate(220,836) scale(3.7766666666667)"><circle cx="3" cy="3" r="3"/></g>
<g transform="translate(264,836) scale(3.7766666666667)"><circle cx="3" cy="3" r="3"/></g>
<g transform="translate(286,836) scale(3.7766666666667)"><circle cx="3" cy="3" r="3"/></g>
<g transform="translate(330,836) scale(3.7766666666667)"><circle cx="3" cy="3" r="3"/></g>
<g transform="translate(352,836) scale(3.7766666666667)"><circle cx="3" cy="3" r="3"/></g>
<g transform="translate(396,836) scale(3.7766666666667)"><circle cx="3" cy="3" r="3"/></g>
<g transform="translate(528,836) scale(3.7766666666667)"><circle cx="3" cy="3" r="3"/></g>
<g transform="translate(616,836) scale(3.7766666666667)"><circle cx="3" cy="3" r="3"/></g>
<g transform="translate(660,836) scale(3.7766666666667)"><circle cx="3" cy="3" r="3"/></g>
<g transform="translate(726,836) scale(3.7766666666667)"><circle cx="3" cy="3" r="3"/></g>
<g transform="translate(748,836) scale(3.7766666666667)"><circle cx="3" cy="3" r="3"/></g>
<g transform="translate(770,836) scale(3.7766666666667)"><circle cx="3" cy="3" r="3"/></g>
<g transform="translate(792,836) scale(3.7766666666667)"><circle cx="3" cy="3" r="3"/></g>
<g transform="translate(814,836) scale(3.7766666666667)"><circle cx="3" cy="3" r="3"/></g>
<g transform="translate(836,836) scale(3.7766666666667)"><circle cx="3" cy="3" r="3"/></g>
<g transform="translate(858,836) scale(3.7766666666667)"><circle cx="3" cy="3" r="3"/></g>
<g transform="translate(220,858) scale(3.7766666666667)"><circle cx="3" cy="3" r="3"/></g>
<g transform="translate(242,858) scale(3.7766666666667)"><circle cx="3" cy="3" r="3"/></g>
<g transform="translate(264,858) scale(3.7766666666667)"><circle cx="3" cy="3" r="3"/></g>
<g transform="translate(374,858) scale(3.7766666666667)"><circle cx="3" cy="3" r="3"/></g>
<g transform="translate(418,858) scale(3.7766666666667)"><circle cx="3" cy="3" r="3"/></g>
<g transform="translate(462,858) scale(3.7766666666667)"><circle cx="3" cy="3" r="3"/></g>
<g transform="translate(484,858) scale(3.7766666666667)"><circle cx="3" cy="3" r="3"/></g>
<g transform="translate(528,858) scale(3.7766666666667)"><circle cx="3" cy="3" r="3"/></g>
<g transform="translate(594,858) scale(3.7766666666667)"><circle cx="3" cy="3" r="3"/></g>
<g transform="translate(638,858) scale(3.7766666666667)"><circle cx="3" cy="3" r="3"/></g>
<g transform="translate(660,858) scale(3.7766666666667)"><circle cx="3" cy="3" r="3"/></g>
<g transform="translate(704,858) scale(3.7766666666667)"><circle cx="3" cy="3" r="3"/></g>
<g transform="translate(726,858) scale(3.7766666666667)"><circle cx="3" cy="3" r="3"/></g>
<g transform="translate(748,858) scale(3.7766666666667)"><circle cx="3" cy="3" r="3"/></g>
<g transform="translate(814,858) scale(3.7766666666667)"><circle cx="3" cy="3" r="3"/></g>
<g transform="translate(858,858) scale(3.7766666666667)"><circle cx="3" cy="3" r="3"/></g>
<g transform="translate(880,858) scale(3.7766666666667)"><circle cx="3" cy="3" r="3"/></g>
<g transform="translate(220,880) scale(3.7766666666667)"><circle cx="3" cy="3" r="3"/></g>
<g transform="translate(264,880) scale(3.7766666666667)"><circle cx="3" cy="3" r="3"/></g>
<g transform="translate(330,880) scale(3.7766666666667)"><circle cx="3" cy="3" r="3"/></g>
<g transform="translate(352,880) scale(3.7766666666667)"><circle cx="3" cy="3" r="3"/></g>
<g transform="translate(418,880) scale(3.7766666666667)"><circle cx="3" cy="3" r="3"/></g>
<g transform="translate(484,880) scale(3.7766666666667)"><circle cx="3" cy="3" r="3"/></g>
<g transform="translate(550,880) scale(3.7766666666667)"><circle cx="3" cy="3" r="3"/></g>
<g transform="translate(594,880) scale(3.7766666666667)"><circle cx="3" cy="3" r="3"/></g>
<g transform="translate(660,880) scale(3.7766666666667)"><circle cx="3" cy="3" r="3"/></g>
<g transform="translate(682,880) scale(3.7766666666667)"><circle cx="3" cy="3" r="3"/></g>
<g transform="translate(726,880) scale(3.7766666666667)"><circle cx="3" cy="3" r="3"/></g>
<g transform="translate(836,880) scale(3.7766666666667)"><circle cx="3" cy="3" r="3"/></g>
<g transform="translate(880,880) scale(3.7766666666667)"><circle cx="3" cy="3" r="3"/></g>
<g transform="translate(902,880) scale(3.7766666666667)"><circle cx="3" cy="3" r="3"/></g>
<g transform="translate(286,902) scale(3.7766666666667)"><circle cx="3" cy="3" r="3"/></g>
<g transform="translate(330,902) scale(3.7766666666667)"><circle cx="3" cy="3" r="3"/></g>
<g transform="translate(352,902) scale(3.7766666666667)"><circle cx="3" cy="3" r="3"/></g>
<g transform="translate(440,902) scale(3.7766666666667)"><circle cx="3" cy="3" r="3"/></g>
<g transform="translate(484,902) scale(3.7766666666667)"><circle cx="3" cy="3" r="3"/></g>
<g transform="translate(550,902) scale(3.7766666666667)"><circle cx="3" cy="3" r="3"/></g>
<g transform="translate(594,902) scale(3.7766666666667)"><circle cx="3" cy="3" r="3"/></g>
<g transform="translate(616,902) scale(3.7766666666667)"><circle cx="3" cy="3" r="3"/></g>
<g transform="translate(638,902) scale(3.7766666666667)"><circle cx="3" cy="3" r="3"/></g>
<g transform="translate(660,902) scale(3.7766666666667)"><circle cx="3" cy="3" r="3"/></g>
<g transform="translate(770,902) scale(3.7766666666667)"><circle cx="3" cy="3" r="3"/></g>
<g transform="translate(814,902) scale(3.7766666666667)"><circle cx="3" cy="3" r="3"/></g>
<g transform="translate(858,902) scale(3.7766666666667)"><circle cx="3" cy="3" r="3"/></g>
<g transform="translate(902,902) scale(3.7766666666667)"><circle cx="3" cy="3" r="3"/></g>
<g transform="translate(242,924) scale(3.7766666666667)"><circle cx="3" cy="3" r="3"/></g>
<g transform="translate(330,924) scale(3.7766666666667)"><circle cx="3" cy="3" r="3"/></g>
<g transform="translate(352,924) scale(3.7766666666667)"><circle cx="3" cy="3" r="3"/></g>
<g transform="translate(374,924) scale(3.7766666666667)"><circle cx="3" cy="3" r="3"/></g>
<g transform="translate(396,924) scale(3.7766666666667)"><circle cx="3" cy="3" r="3"/></g>
<g transform="translate(418,924) scale(3.7766666666667)"><circle cx="3" cy="3" r="3"/></g>
<g transform="translate(440,924) scale(3.7766666666667)"><circle cx="3" cy="3" r="3"/></g>
<g transform="translate(462,924) scale(3.7766666666667)"><circle cx="3" cy="3" r="3"/></g>
<g transform="translate(616,924) scale(3.7766666666667)"><circle cx="3" cy="3" r="3"/></g>
<g transform="translate(638,924) scale(3.7766666666667)"><circle cx="3" cy="3" r="3"/></g>
<g transform="translate(660,924) scale(3.7766666666667)"><circle cx="3" cy="3" r="3"/></g>
<g transform="translate(682,924) scale(3.7766666666667)"><circle cx="3" cy="3" r="3"/></g>
<g transform="translate(748,924) scale(3.7766666666667)"><circle cx="3" cy="3" r="3"/></g>
<g transform="translate(792,924) scale(3.7766666666667)"><circle cx="3" cy="3" r="3"/></g>
<g transform="translate(836,924) scale(3.7766666666667)"><circle cx="3" cy="3" r="3"/></g>
<g transform="translate(858,924) scale(3.7766666666667)"><circle cx="3" cy="3" r="3"/></g>
<g transform="translate(44,44)"><g transform="scale(11)"><path d="M4.5,14h5.1C12,14,14,12,14,9.6V4.5C14,2,12,0,9.5,0H4.4C2,0,0,2,0,4.4v5.1C0,12,2,14,4.5,14z M12,4.8v4.4 c0,1.5-1.3,2.8-2.8,2.8H4.8C3.2,12,2,10.8,2,9.2V4.8C2,3.3,3.3,2,4.8,2h4.4C10.8,2,12,3.2,12,4.8z"/></g></g>
<g transform="translate(792,44)"><g transform="scale(11)"><path d="M4.5,14h5.1C12,14,14,12,14,9.6V4.5C14,2,12,0,9.5,0H4.4C2,0,0,2,0,4.4v5.1C0,12,2,14,4.5,14z M12,4.8v4.4 c0,1.5-1.3,2.8-2.8,2.8H4.8C3.2,12,2,10.8,2,9.2V4.8C2,3.3,3.3,2,4.8,2h4.4C10.8,2,12,3.2,12,4.8z"/></g></g>
<g transform="translate(44,792)"><g transform="scale(11)"><path d="M4.5,14h5.1C12,14,14,12,14,9.6V4.5C14,2,12,0,9.5,0H4.4C2,0,0,2,0,4.4v5.1C0,12,2,14,4.5,14z M12,4.8v4.4 c0,1.5-1.3,2.8-2.8,2.8H4.8C3.2,12,2,10.8,2,9.2V4.8C2,3.3,3.3,2,4.8,2h4.4C10.8,2,12,3.2,12,4.8z"/></g></g>
<g transform="translate(88,88)"><g transform="scale(11)"><path d="M6,1.7v2.7C6,5.2,5.2,6,4.3,6H1.7C0.7,6,0,5.3,0,4.3V1.7C0,0.8,0.8,0,1.7,0h2.7C5.3,0,6,0.7,6,1.7z"/></g></g>
<g transform="translate(836,88)"><g transform="scale(11)"><path d="M6,1.7v2.7C6,5.2,5.2,6,4.3,6H1.7C0.7,6,0,5.3,0,4.3V1.7C0,0.8,0.8,0,1.7,0h2.7C5.3,0,6,0.7,6,1.7z"/></g></g>
<g transform="translate(88,836)"><g transform="scale(11)"><path d="M6,1.7v2.7C6,5.2,5.2,6,4.3,6H1.7C0.7,6,0,5.3,0,4.3V1.7C0,0.8,0.8,0,1.7,0h2.7C5.3,0,6,0.7,6,1.7z"/></g></g>
</g></svg>
